# Blender v3.0.0 OBJ File: ''
# www.blender.org
mtllib Arrow5.mtl
o Arrow5
v 0.076335 0.001940 0.006375
v 0.077251 0.000954 0.006375
v 0.077251 0.000954 -0.006375
v 0.076335 0.001941 -0.006375
v -0.077251 0.015652 0.006375
v -0.077058 0.017296 0.006375
v -0.077058 0.017298 -0.006375
v -0.077251 0.015652 -0.006375
v -0.076061 0.018542 0.006375
v -0.076061 0.018542 -0.006375
v -0.074219 0.019040 0.006375
v -0.074219 0.019042 -0.006375
v 0.027441 0.019040 0.006375
v 0.027441 0.019042 -0.006375
v 0.027849 0.029949 0.006375
v 0.027849 0.029949 -0.006375
v 0.027569 0.019167 0.006375
v 0.027569 0.029775 0.006375
v 0.027569 0.029776 -0.006375
v 0.027569 0.019169 -0.006375
v 0.077251 -0.000954 0.006375
v 0.077251 -0.000954 -0.006375
v 0.076335 -0.001941 0.006375
v 0.076335 -0.001940 -0.006375
v -0.077251 -0.015652 -0.006375
v -0.077251 -0.015652 0.006375
v -0.077058 -0.017296 -0.006375
v -0.077058 -0.017298 0.006375
v -0.076061 -0.018542 -0.006375
v -0.076061 -0.018542 0.006375
v -0.074219 -0.019040 -0.006375
v -0.074219 -0.019042 0.006375
v 0.027441 -0.019040 -0.006375
v 0.027441 -0.019042 0.006375
v 0.027849 -0.029949 0.006375
v 0.027849 -0.029949 -0.006375
v 0.027569 -0.019169 0.006375
v 0.027569 -0.019167 -0.006375
v 0.027569 -0.029775 -0.006375
v 0.027569 -0.029776 0.006375
v -0.074528 0.015392 -0.006375
v -0.074528 -0.015392 -0.006375
v -0.074528 -0.015392 0.006375
v -0.074528 0.015392 0.006375
v -0.074355 0.017025 0.006375
v -0.074355 -0.017027 0.006375
v 0.031085 -0.006470 -0.006375
v 0.031673 -0.005290 -0.006375
v -0.074355 0.017027 -0.006375
v 0.031673 0.005290 -0.006375
v 0.031673 0.005290 0.006375
v 0.031673 -0.005290 0.006375
v 0.031085 0.006470 0.006375
v 0.031085 -0.006470 0.006375
v -0.074355 -0.017025 -0.006375
v 0.031085 0.006470 -0.006375
vt 0.387100 0.909900
vt 0.393400 0.909900
vt 0.393400 0.990800
vt 0.387100 0.990800
vt 0.236900 0.731400
vt 0.247400 0.731400
vt 0.247400 0.812300
vt 0.236900 0.812300
vt 0.255300 0.731400
vt 0.255300 0.812300
vt 0.267000 0.731400
vt 0.267000 0.812300
vt 0.912300 0.731400
vt 0.912300 0.812300
vt 0.079300 0.909900
vt 0.079300 0.990800
vt 0.010200 0.909900
vt 0.077500 0.909900
vt 0.077500 0.990800
vt 0.010200 0.990800
vt 0.405500 0.909900
vt 0.405500 0.990800
vt 0.411700 0.909900
vt 0.411700 0.990800
vt 0.038200 0.812300
vt 0.038200 0.731400
vt 0.027700 0.812300
vt 0.027700 0.731400
vt 0.019800 0.812300
vt 0.019800 0.731400
vt 0.008100 0.812300
vt 0.008100 0.731400
vt 0.724600 0.822300
vt 0.724600 0.903300
vt 0.079300 0.903300
vt 0.079300 0.822300
vt 0.719500 0.909900
vt 0.719500 0.990800
vt 0.078500 0.822300
vt 0.078500 0.903300
vt 0.011200 0.903300
vt 0.011200 0.822300
vt 0.009400 0.903300
vt 0.009400 0.822300
vt 0.987000 0.300200
vt 0.969700 0.298600
vt 0.969700 0.103100
vt 0.987000 0.101500
vt 0.006200 0.428300
vt 0.023500 0.430000
vt 0.023500 0.625400
vt 0.006200 0.627100
vt 0.007500 0.637500
vt 0.024600 0.635800
vt 0.007500 0.417900
vt 0.024600 0.419600
vt 0.012000 0.188500
vt 0.299300 0.159800
vt 0.295600 0.167300
vt 0.006200 0.194800
vt 0.985800 0.310700
vt 0.968600 0.308900
vt 0.913100 0.731400
vt 0.913100 0.812300
vt 0.006200 0.206900
vt 0.295600 0.234400
vt 0.987000 0.521600
vt 0.987000 0.533800
vt 0.697700 0.561300
vt 0.697700 0.494100
vt 0.981200 0.540000
vt 0.694000 0.568800
vt 0.981200 0.515400
vt 0.694000 0.486600
vt 0.968600 0.092800
vt 0.012000 0.213200
vt 0.299300 0.241900
vt 0.321600 0.389900
vt 0.319800 0.391000
vt 0.673400 0.717800
vt 0.671600 0.716700
vt 0.671600 0.338700
vt 0.673400 0.337600
vt 0.319800 0.010700
vt 0.321600 0.011800
vt 0.321600 0.079200
vt 0.322400 0.080000
vt 0.671600 0.406000
vt 0.670800 0.406800
vt 0.671600 0.649400
vt 0.670800 0.648600
vt 0.321600 0.322500
vt 0.322400 0.321700
vt 0.985800 0.091000
vt 0.025500 0.648600
vt 0.013800 0.645400
vt 0.979500 0.318600
vt 0.967800 0.321700
vt 0.013800 0.410000
vt 0.025500 0.406800
vt 0.967800 0.080000
vt 0.979500 0.083100
vn 0.6235 0.7819 0.0001
vn 0.9308 0.3655 0.0000
vn 0.6234 0.7819 0.0001
vn -0.9983 0.0586 0.0000
vn -0.9226 0.3857 0.0000
vn -0.9226 0.3858 0.0000
vn -0.5478 0.8366 -0.0000
vn -0.1318 0.9913 0.0001
vn -0.1315 0.9913 -0.0001
vn -0.3827 0.9239 0.0001
vn -0.3827 0.9239 -0.0004
vn -0.0170 0.9999 -0.0000
vn -1.0000 0.0000 0.0000
vn -0.5290 0.8486 0.0000
vn 0.9308 -0.3655 -0.0000
vn 0.6234 -0.7819 -0.0001
vn 0.6235 -0.7819 -0.0001
vn -0.9983 -0.0586 -0.0000
vn -0.9226 -0.3857 -0.0000
vn -0.9226 -0.3858 -0.0000
vn -0.5478 -0.8366 0.0000
vn -0.1318 -0.9913 -0.0001
vn -0.1315 -0.9913 0.0001
vn -0.3827 -0.9239 -0.0001
vn -0.3827 -0.9239 0.0004
vn -0.0170 -0.9999 0.0000
vn -0.5290 -0.8486 -0.0000
vn -0.0000 0.0000 -1.0000
vn -0.0000 -0.0000 1.0000
vn -0.7071 0.7071 0.0001
vn -0.7071 -0.7071 -0.0001
usemtl Arrow5
s 1
f 1/1/1 2/2/2 3/3/2 4/4/3
f 5/5/4 6/6/5 7/7/6 8/8/4
f 6/6/5 9/9/7 10/10/7 7/7/6
f 9/9/7 11/11/8 12/12/9 10/10/7
f 11/11/8 13/13/10 14/14/11 12/12/9
f 15/15/12 1/1/1 4/4/3 16/16/12
f 17/17/13 18/18/13 19/19/13 20/20/13
f 18/18/14 15/15/12 16/16/12 19/19/14
f 21/21/15 22/22/15 3/3/2 2/2/2
f 23/23/16 24/24/17 22/22/15 21/21/15
f 5/5/4 8/8/4 25/25/18 26/26/18
f 26/26/18 25/25/18 27/27/19 28/28/20
f 28/28/20 27/27/19 29/29/21 30/30/21
f 30/30/21 29/29/21 31/31/22 32/32/23
f 32/33/23 31/34/22 33/35/24 34/36/25
f 35/37/26 36/38/26 24/24/17 23/23/16
f 37/39/13 38/40/13 39/41/13 40/42/13
f 40/42/27 39/41/27 36/43/26 35/44/26
f 8/45/28 41/46/28 42/47/28 25/48/28
f 26/49/29 43/50/29 44/51/29 5/52/29
f 6/53/29 5/52/29 44/51/29 45/54/29
f 28/55/29 46/56/29 43/50/29 26/49/29
f 24/57/28 47/58/28 48/59/28 22/60/28
f 7/61/28 49/62/28 41/46/28 8/45/28
f 13/13/10 17/63/30 20/64/30 14/14/11
f 33/35/24 38/40/31 37/39/31 34/36/25
f 3/65/28 22/60/28 48/59/28 50/66/28
f 21/67/29 2/68/29 51/69/29 52/70/29
f 51/69/29 2/68/29 1/71/29 53/72/29
f 23/73/29 21/67/29 52/70/29 54/74/29
f 47/58/28 55/75/28 42/47/28 48/59/28
f 4/76/28 3/65/28 50/66/28 56/77/28
f 56/77/28 19/78/28 16/79/28 4/76/28
f 53/72/29 1/71/29 15/80/29 18/81/29
f 54/74/29 40/82/29 35/83/29 23/73/29
f 47/58/28 24/57/28 36/84/28 39/85/28
f 38/86/28 33/87/28 47/58/28 39/85/28
f 37/88/29 40/82/29 54/74/29 34/89/29
f 17/90/29 13/91/29 53/72/29 18/81/29
f 20/92/28 19/78/28 56/77/28 14/93/28
f 50/66/28 48/59/28 42/47/28 41/46/28
f 52/70/29 51/69/29 44/51/29 43/50/29
f 44/51/29 51/69/29 53/72/29 45/54/29
f 54/74/29 52/70/29 43/50/29 46/56/29
f 56/77/28 50/66/28 41/46/28 49/62/28
f 27/94/28 25/48/28 42/47/28 55/75/28
f 45/54/29 11/95/29 9/96/29 6/53/29
f 49/62/28 7/61/28 10/97/28 12/98/28
f 46/56/29 28/55/29 30/99/29 32/100/29
f 55/75/28 31/101/28 29/102/28 27/94/28
f 45/54/29 53/72/29 13/91/29 11/95/29
f 46/56/29 32/100/29 34/89/29 54/74/29
f 55/75/28 47/58/28 33/87/28 31/101/28
f 49/62/28 12/98/28 14/93/28 56/77/28
